<?xml version="1.0" standalone="no"?><!DOCTYPE svg PUBLIC "-//W3C//DTD SVG 1.1//EN" "http://www.w3.org/Graphics/SVG/1.1/DTD/svg11.dtd"><svg t="1767594763179" class="icon" viewBox="0 0 1117 1024" version="1.1" xmlns="http://www.w3.org/2000/svg" p-id="11241" xmlns:xlink="http://www.w3.org/1999/xlink" width="218.1640625" height="200"><path d="M1027.94 243.991h-95.666c29.883-33.76 46.267-73.231 47.973-110.964 1.459-32.768-8.037-62.526-27.462-86.078-20.324-24.67-50.176-40.402-86.264-45.46-71.649-10.053-151.614 30.938-237.754 121.856-25.445 26.842-47.538 53.993-64.636 76.428a941.273 941.273 0 0 0-64.636-76.428C413.355 32.427 333.359-8.533 261.772 1.49c-36.089 5.027-65.97 20.79-86.296 45.46-19.425 23.552-28.92 53.31-27.461 86.078 1.706 37.733 18.09 77.203 47.972 110.964H89.15A89.46 89.46 0 0 0 0 333.203v94.395a89.46 89.46 0 0 0 82.075 88.901v418.289A89.46 89.46 0 0 0 171.287 1024h774.517a89.46 89.46 0 0 0 89.18-89.212V516.499a89.46 89.46 0 0 0 82.107-88.901v-94.395a89.46 89.46 0 0 0-89.15-89.212z m0 89.368v94.083a1.396 1.396 0 0 1-0.154 0.156h-424.65v-94.395h424.65a1.303 1.303 0 0 1 0.155 0.156zM854.14 89.833c25.91 3.63 38.043 16.446 37.02 39.222-1.956 43.846-54.21 108.079-164.275 113.602-3.01 0.155-5.958 0.62-8.782 1.334H642.7a828.354 828.354 0 0 1 51.634-60.199c62.992-66.218 119.746-99.607 159.806-93.96zM401.408 242.657c-110.127-5.523-162.382-69.756-164.336-113.57-1.024-22.777 11.108-35.624 37.05-39.254 40.029-5.617 96.814 27.772 159.806 93.99a828.571 828.571 0 0 1 51.634 60.168H410.16a44.653 44.653 0 0 0-8.813-1.334zM89.119 333.359a1.272 1.272 0 0 1 0.186-0.156h424.619v94.395H89.367a1.272 1.272 0 0 1-0.186-0.156V333.36z m82.168 601.274V522.24h342.699v412.548H171.38a1.365 1.365 0 0 1-0.124-0.155z m774.579 0a1.365 1.365 0 0 1-0.155 0.155H603.136V522.24h342.73v412.393z" p-id="11242" fill="#bfbfbf"></path></svg>